<svg width="23" height="25" viewBox="0 0 23 25" fill="none" xmlns="http://www.w3.org/2000/svg">
<g clip-path="url(#clip0)">
<path d="M22.3257 11.7734V16.2734C22.3257 16.418 22.3082 16.5621 22.2735 16.7029L20.702 23.0779C20.4933 23.9248 19.7015 24.5234 18.7899 24.5234H8.57567C8.26585 24.5234 7.96042 24.4535 7.68432 24.3193C7.40823 24.1851 7.1693 23.9904 6.98706 23.7513L0.701502 15.5013C0.0634535 14.6638 0.257426 13.4911 1.13472 12.8821C2.01212 12.273 3.24063 12.4582 3.87868 13.2957L5.43282 15.3356V2.39844C5.43282 1.36292 6.31223 0.523438 7.3971 0.523438C8.48198 0.523438 9.36139 1.36292 9.36139 2.39844V11.7734H9.75424V9.89844C9.75424 8.86292 10.6337 8.02344 11.7185 8.02344C12.8034 8.02344 13.6828 8.86292 13.6828 9.89844V11.7734H14.0757V10.6484C14.0757 9.61292 14.9551 8.77344 16.0399 8.77344C17.1248 8.77344 18.0042 9.61292 18.0042 10.6484V11.7734H18.3971C18.3971 10.7379 19.2765 9.89844 20.3614 9.89844C21.4462 9.89844 22.3257 10.7379 22.3257 11.7734ZM9.75424 15.5234H9.36139V20.0234H9.75424V15.5234ZM14.0757 15.5234H13.6828V20.0234H14.0757V15.5234ZM18.3971 15.5234H18.0042V20.0234H18.3971V15.5234Z" fill="white"/>
</g>
<defs>
<clipPath id="clip0">
<rect width="22" height="24" fill="white" transform="translate(0.325684 0.523438)"/>
</clipPath>
</defs>
</svg>
