<svg width="200" height="60" viewBox="0 0 200 60" fill="none" xmlns="http://www.w3.org/2000/svg">
<path d="M63 14.87C62.28 12.17 60.15 10.04 57.44 9.31C52.54 8 32.88 8 32.88 8C32.88 8 13.23 8 8.32001 9.31C5.62001 10.03 3.49001 12.16 2.76001 14.87C1.45001 19.77 1.45001 30 1.45001 30C1.45001 30 1.45001 40.23 2.76001 45.13C3.48001 47.83 5.61001 49.96 8.32001 50.69C13.23 52 32.88 52 32.88 52C32.88 52 52.54 52 57.44 50.69C60.14 49.97 62.27 47.84 63 45.13C64.31 40.23 64.31 30 64.31 30C64.31 30 64.31 19.77 63 14.87Z" fill="#FF0000"/>
<path d="M26.6 39.4298L42.93 29.9998L26.6 20.5698V39.4298Z" fill="white"/>
<path d="M92.69 48.0297C91.45 47.1897 90.56 45.8897 90.04 44.1197C89.52 42.3497 89.25 39.9997 89.25 37.0597V33.0597C89.25 30.0897 89.55 27.7097 90.15 25.9097C90.75 24.1097 91.69 22.7997 92.96 21.9797C94.23 21.1597 95.9 20.7397 97.97 20.7397C100.01 20.7397 101.64 21.1597 102.87 21.9997C104.1 22.8397 105 24.1497 105.57 25.9297C106.14 27.7097 106.42 30.0897 106.42 33.0497V37.0497C106.42 39.9897 106.14 42.3497 105.59 44.1297C105.04 45.9097 104.14 47.2197 102.89 48.0397C101.65 48.8597 99.96 49.2797 97.83 49.2797C95.65 49.2897 93.93 48.8697 92.69 48.0297ZM99.66 43.7097C100 42.8097 100.18 41.3397 100.18 39.3097V30.7197C100.18 28.7397 100.01 27.2997 99.66 26.3797C99.32 25.4697 98.71 25.0097 97.84 25.0097C97 25.0097 96.41 25.4697 96.06 26.3797C95.72 27.2897 95.54 28.7397 95.54 30.7197V39.3097C95.54 41.3497 95.7 42.8197 96.03 43.7097C96.36 44.6097 96.96 45.0597 97.83 45.0597C98.71 45.0597 99.31 44.6097 99.66 43.7097Z" fill="white"/>
<path d="M188.16 37.1298V38.5198C188.16 40.2898 188.21 41.6098 188.32 42.4998C188.42 43.3798 188.64 44.0298 188.97 44.4298C189.3 44.8298 189.81 45.0398 190.5 45.0398C191.43 45.0398 192.07 44.6798 192.41 43.9598C192.75 43.2398 192.94 42.0398 192.97 40.3598L198.32 40.6698C198.35 40.9098 198.36 41.2398 198.36 41.6598C198.36 44.2098 197.66 46.1098 196.27 47.3698C194.88 48.6298 192.91 49.2598 190.36 49.2598C187.3 49.2598 185.16 48.2998 183.93 46.3798C182.7 44.4598 182.09 41.4998 182.09 37.4798V32.6698C182.09 28.5298 182.73 25.5198 184 23.6098C185.27 21.7098 187.45 20.7598 190.54 20.7598C192.67 20.7598 194.3 21.1498 195.44 21.9298C196.58 22.7098 197.38 23.9198 197.85 25.5698C198.31 27.2198 198.55 29.4998 198.55 32.3998V37.1198H188.16V37.1298ZM188.95 25.5298C188.64 25.9198 188.43 26.5598 188.32 27.4398C188.21 28.3198 188.16 29.6698 188.16 31.4598V33.4398H192.7V31.4598C192.7 29.6898 192.64 28.3498 192.52 27.4398C192.4 26.5298 192.18 25.8798 191.87 25.5098C191.56 25.1398 191.07 24.9498 190.41 24.9498C189.75 24.9398 189.26 25.1398 188.95 25.5298Z" fill="white"/>
<path d="M77.59 36.6099L70.53 11.1199H76.69L79.16 22.6699C79.79 25.5199 80.25 27.9399 80.55 29.9499H80.73C80.94 28.5099 81.4 26.0999 82.12 22.7099L84.68 11.1099H90.84L83.7 36.6099V48.8399H77.59V36.6099Z" fill="white"/>
<path d="M126.45 21.2798V48.8298H121.6L121.06 45.4598H120.93C119.61 48.0098 117.63 49.2798 115 49.2798C113.17 49.2798 111.82 48.6798 110.95 47.4798C110.08 46.2798 109.65 44.4098 109.65 41.8598V21.2798H115.85V41.5098C115.85 42.7398 115.98 43.6198 116.25 44.1398C116.52 44.6598 116.97 44.9298 117.6 44.9298C118.14 44.9298 118.66 44.7698 119.15 44.4398C119.64 44.1098 120.01 43.6898 120.25 43.1798V21.2798H126.45Z" fill="white"/>
<path d="M158.27 21.2798V48.8298H153.42L152.88 45.4598H152.75C151.43 48.0098 149.45 49.2798 146.82 49.2798C144.99 49.2798 143.64 48.6798 142.77 47.4798C141.9 46.2798 141.47 44.4098 141.47 41.8598V21.2798H147.67V41.5098C147.67 42.7398 147.8 43.6198 148.07 44.1398C148.34 44.6598 148.79 44.9298 149.42 44.9298C149.96 44.9298 150.48 44.7698 150.97 44.4398C151.46 44.1098 151.83 43.6898 152.07 43.1798V21.2798H158.27Z" fill="white"/>
<path d="M143.31 16.1101H137.15V48.8301H131.08V16.1101H124.92V11.1201H143.3V16.1101H143.31Z" fill="white"/>
<path d="M178.8 25.69C178.42 23.95 177.82 22.69 176.98 21.91C176.14 21.13 174.99 20.74 173.52 20.74C172.38 20.74 171.32 21.06 170.33 21.71C169.34 22.35 168.58 23.2 168.04 24.25H167.99V9.72998H162.01V48.84H167.13L167.76 46.23H167.89C168.37 47.16 169.09 47.89 170.05 48.43C171.01 48.97 172.07 49.24 173.24 49.24C175.34 49.24 176.88 48.27 177.87 46.34C178.86 44.41 179.35 41.39 179.35 37.28V32.92C179.36 29.84 179.17 27.43 178.8 25.69ZM173.11 36.93C173.11 38.94 173.03 40.51 172.86 41.65C172.7 42.79 172.42 43.6 172.03 44.08C171.64 44.56 171.12 44.8 170.46 44.8C169.95 44.8 169.48 44.68 169.04 44.44C168.61 44.2 168.25 43.84 167.98 43.36V27.71C168.19 26.96 168.55 26.35 169.06 25.87C169.57 25.39 170.12 25.15 170.72 25.15C171.35 25.15 171.84 25.4 172.18 25.89C172.52 26.38 172.76 27.22 172.9 28.38C173.03 29.55 173.1 31.21 173.1 33.37V36.93H173.11Z" fill="white"/>
</svg>
